<?xml version="1.0" encoding="UTF-8" standalone="no"?>
<svg
   viewBox="0 0 24 24"
   width="24"
   height="24"
   fill="currentColor"
   version="1.1"
   id="svg2"
   xmlns="http://www.w3.org/2000/svg">
  <path
     id="path1"
     d="M 15 10.103516 L 8.4433594 16.660156 L 6.4082031 14.625 C 6.1470907 15.195564 6 15.830186 6 16.5 C 6 18.99 8.01 21 10.5 21 C 12.81 21 14.699219 19.25 14.949219 17 L 15 17 L 15 10.103516 z " />
  <path
     id="path16"
     d="M 12 9.9257812 L 15 6.9316406 L 15 6 L 19 6 L 19 3 L 12 3 L 12 9.9257812 z " />
  <path
     id="path15"
     d="M 9.5683594 12.095703 L 9.5683594 12.353516 L 9.8789062 12.042969 C 9.7746696 12.057306 9.6701656 12.074384 9.5683594 12.095703 z " />
  <path
     d="M 14.940513,9.6546161 13.814394,8.5284975 9.3498519,12.985053 V 3.2652881 H 7.7525178 V 12.985053 L 3.2959626,8.520511 2.161856,9.6546161 8.5511856,16.043945 Z"
     id="path2"
     style="stroke-width:0.798666" />
</svg>
